<?xml version="1.0" encoding="UTF-8"?>
<svg width="6.4805" height="158.46" version="1.1" viewBox="0 0 1.7227 41.596" xmlns="http://www.w3.org/2000/svg">
 <path d="m1.7227-0.26337v42.123h-1.7227l1.3291-1.327-1.3177-1.3177 1.3177-1.3177-1.3291-1.3291 1.3291-1.327-1.3177-1.3177 1.3177-1.3182-1.2362-1.2362h-0.092935l0.046727-0.04621-0.046727-0.04673h0.092935l1.2362-1.2341-1.3177-1.3182 1.3177-1.3177-1.3291-1.3291 1.3291-1.327-1.3177-1.3177 1.3177-1.3177-1.3052-1.3052h-0.023883l0.011941-0.01194-0.011941-0.01194h0.023883l1.3052-1.3032-1.3177-1.3177 1.3177-1.3177-1.3291-1.3291 1.3291-1.327-1.3177-1.3182 1.3177-1.3177-1.2346-1.2346h-0.094492l0.047246-0.04725-0.047246-0.04725h0.094492l1.2346-1.2325-1.3177-1.3177 1.3177-1.3177-1.3291-1.3291 1.3291-1.327-1.3177-1.3177 1.3177-1.3177-1.3291-1.3291z"/>
</svg>
